<svg id="Group_14929" data-name="Group 14929" xmlns="http://www.w3.org/2000/svg" xmlns:xlink="http://www.w3.org/1999/xlink" width="60" height="42.693" viewBox="0 0 60 42.693">
  <defs>
    <clipPath id="clip-path">
      <rect id="Rectangle_885" data-name="Rectangle 885" width="60" height="42.693" fill="none"/>
    </clipPath>
  </defs>
  <g id="Group_14928" data-name="Group 14928" clip-path="url(#clip-path)">
    <path id="Path_538" data-name="Path 538" d="M23.737,31.136a8.339,8.339,0,0,1-6.6,3.033A8.487,8.487,0,0,1,9,25.6v-8.61h8.135V8.423H9V0H0V25.558A17.135,17.135,0,0,0,28,38.807a18.252,18.252,0,0,1-4.263-7.671" fill="#f75d1b"/>
    <path id="Path_539" data-name="Path 539" d="M206.259,8.423a17.169,17.169,0,0,0-8.135,2.045V0h-9V25.558A17.135,17.135,0,1,0,206.259,8.423m0,25.745a8.6,8.6,0,1,1,8.6-8.6,8.591,8.591,0,0,1-8.6,8.6" transform="translate(-163.393)" fill="#dc2829"/>
  </g>
</svg>
