<svg id="logo" xmlns="http://www.w3.org/2000/svg" xmlns:xlink="http://www.w3.org/1999/xlink" width="53.033" height="54.404" viewBox="0 0 53.033 54.404">
  <defs>
    <clipPath id="clip-path">
      <rect id="Rectangle_884" data-name="Rectangle 884" width="53.033" height="54.404" fill="none"/>
    </clipPath>
  </defs>
  <g id="Group_14926" data-name="Group 14926" clip-path="url(#clip-path)">
    <path id="Path_529" data-name="Path 529" d="M20.981,27.52A7.371,7.371,0,0,1,15.145,30.2a7.5,7.5,0,0,1-7.191-7.573V15.018h7.191V7.445H7.954V0H0V22.59A15.145,15.145,0,0,0,24.749,34.3a16.133,16.133,0,0,1-3.768-6.781" fill="#f75d1b"/>
    <path id="Path_530" data-name="Path 530" d="M204.269,7.445a15.176,15.176,0,0,0-7.191,1.807V0h-7.954V22.59A15.145,15.145,0,1,0,204.269,7.445m0,22.756a7.6,7.6,0,1,1,7.6-7.6,7.593,7.593,0,0,1-7.6,7.6" transform="translate(-166.381)" fill="#dc2829"/>
    <path id="Path_531" data-name="Path 531" d="M2.486,364.116v-7.682H0v-1.486H6.616v1.486H4.13v7.682Z" transform="translate(0 -312.264)" fill="#f75d1b"/>
    <path id="Path_532" data-name="Path 532" d="M52.5,378.314a3.664,3.664,0,0,1,.25-1.348,3.358,3.358,0,0,1,.7-1.111,3.257,3.257,0,0,1,2.361-1,2.806,2.806,0,0,1,1.375.316,1.511,1.511,0,0,1,.743.789V375h1.578v6.629H57.934v-.96a1.511,1.511,0,0,1-.743.789,2.806,2.806,0,0,1-1.375.316,3.257,3.257,0,0,1-2.361-1,3.355,3.355,0,0,1-.7-1.111,3.665,3.665,0,0,1-.25-1.348m1.565,0a2.371,2.371,0,0,0,.1.658,1.891,1.891,0,0,0,.335.644,1.97,1.97,0,0,0,.625.513,1.86,1.86,0,0,0,.9.21,2.254,2.254,0,0,0,.651-.105,1.913,1.913,0,0,0,.651-.348,2.013,2.013,0,0,0,.513-.645,1.969,1.969,0,0,0,.21-.927,2.24,2.24,0,0,0-.105-.658,1.936,1.936,0,0,0-.349-.644,2.013,2.013,0,0,0-.644-.513,1.971,1.971,0,0,0-.927-.21,2.067,2.067,0,0,0-.631.105,1.888,1.888,0,0,0-.625.349,1.979,1.979,0,0,0-.5.645,2.017,2.017,0,0,0-.2.927" transform="translate(-46.188 -329.777)" fill="#f75d1b"/>
    <path id="Path_533" data-name="Path 533" d="M122.176,381.725V375.1h1.565v.986a1.8,1.8,0,0,1,.763-.815,2.383,2.383,0,0,1,1.21-.3,2.448,2.448,0,0,1,.473.039v1.526a3.1,3.1,0,0,0-.658-.066,1.773,1.773,0,0,0-1.3.48,1.737,1.737,0,0,0-.487,1.3v3.486Z" transform="translate(-107.484 -329.873)" fill="#f75d1b"/>
    <path id="Path_534" data-name="Path 534" d="M158.817,378.314a3.664,3.664,0,0,1,.25-1.348,3.357,3.357,0,0,1,.7-1.111,3.257,3.257,0,0,1,2.361-1,2.806,2.806,0,0,1,1.375.316,1.511,1.511,0,0,1,.743.789V375h1.578v6.629h-1.578v-.96a1.511,1.511,0,0,1-.743.789,2.806,2.806,0,0,1-1.375.316,3.257,3.257,0,0,1-2.361-1,3.355,3.355,0,0,1-.7-1.111,3.665,3.665,0,0,1-.25-1.348m1.565,0a2.371,2.371,0,0,0,.1.658,1.891,1.891,0,0,0,.335.644,1.97,1.97,0,0,0,.625.513,1.86,1.86,0,0,0,.9.21,2.254,2.254,0,0,0,.651-.105,1.913,1.913,0,0,0,.651-.348,2.013,2.013,0,0,0,.513-.645,1.969,1.969,0,0,0,.21-.927,2.24,2.24,0,0,0-.105-.658,1.936,1.936,0,0,0-.349-.644,2.013,2.013,0,0,0-.644-.513,1.971,1.971,0,0,0-.927-.21,2.067,2.067,0,0,0-.631.105,1.888,1.888,0,0,0-.625.349,1.979,1.979,0,0,0-.5.645,2.017,2.017,0,0,0-.2.927" transform="translate(-139.718 -329.777)" fill="#f75d1b"/>
    <path id="Path_535" data-name="Path 535" d="M254.517,364.116v-9.168h3.315a2.62,2.62,0,0,1,1.822.671,2.159,2.159,0,0,1,.743,1.671,2.1,2.1,0,0,1-.316,1.144,1.666,1.666,0,0,1-.855.7,2.984,2.984,0,0,1,.658.217,2,2,0,0,1,.618.46,1.919,1.919,0,0,1,.428.75,2.828,2.828,0,0,1,.138.848,2.72,2.72,0,0,1-.21,1.065,2.6,2.6,0,0,1-1.48,1.44,2.978,2.978,0,0,1-1.1.2Zm1.644-5.472h1.447a1.175,1.175,0,0,0,.849-.322,1.075,1.075,0,0,0,.335-.809,1.01,1.01,0,0,0-.335-.763,1.172,1.172,0,0,0-.835-.316h-1.46Zm0,3.986H258a1.794,1.794,0,0,0,.625-.125,1.3,1.3,0,0,0,.809-1.19,1.182,1.182,0,0,0-.237-.717,1.24,1.24,0,0,0-.579-.447,1.855,1.855,0,0,0-.631-.125h-1.828Z" transform="translate(-223.91 -312.264)" fill="#dc2829"/>
    <path id="Path_536" data-name="Path 536" d="M316.644,378.314a3.664,3.664,0,0,1,.25-1.348,3.359,3.359,0,0,1,.7-1.111,3.257,3.257,0,0,1,2.361-1,2.807,2.807,0,0,1,1.375.316,1.511,1.511,0,0,1,.743.789V375h1.578v6.629h-1.578v-.96a1.511,1.511,0,0,1-.743.789,2.807,2.807,0,0,1-1.375.316,3.257,3.257,0,0,1-2.361-1,3.357,3.357,0,0,1-.7-1.111,3.664,3.664,0,0,1-.25-1.348m1.565,0a2.367,2.367,0,0,0,.1.658,1.889,1.889,0,0,0,.335.644,1.97,1.97,0,0,0,.625.513,1.86,1.86,0,0,0,.9.21,2.253,2.253,0,0,0,.651-.105,1.912,1.912,0,0,0,.651-.348,2.008,2.008,0,0,0,.513-.645,1.969,1.969,0,0,0,.21-.927,2.232,2.232,0,0,0-.105-.658,1.933,1.933,0,0,0-.349-.644,2.012,2.012,0,0,0-.644-.513,1.971,1.971,0,0,0-.927-.21,2.067,2.067,0,0,0-.631.105,1.888,1.888,0,0,0-.625.349,1.979,1.979,0,0,0-.5.645,2.018,2.018,0,0,0-.2.927" transform="translate(-278.566 -329.777)" fill="#dc2829"/>
    <path id="Path_537" data-name="Path 537" d="M384.228,382.78l-2.723-6.721h1.618l1.934,4.84,1.986-4.84h1.618l-3.893,9.181h-1.6Z" transform="translate(-335.627 -330.836)" fill="#dc2829"/>
  </g>
</svg>
