<svg xmlns="http://www.w3.org/2000/svg" width="131.12" height="131.12" viewBox="0 0 131.12 131.12">
  <path id="Path_550" data-name="Path 550" d="M124.876,124.876h6.243v-6.244h-6.243ZM87.413,112.389h6.244v-6.244H87.413ZM24.975,99.9H12.488v18.731H31.219V99.9ZM6.244,118.632V93.657H37.463v31.219H6.244ZM37.463,87.413H0V131.12H43.707V87.413ZM0,81.17H6.244V74.926H0Zm24.975-6.244H12.488V81.17H31.219V74.926Zm68.682,0H87.413V81.17H99.9V74.926Zm24.975,6.244h6.244V74.926h-6.244ZM31.219,74.926h6.244V68.682H31.219Zm62.438-6.244H99.9V62.438H93.657ZM0,56.194H6.244V49.95H0Zm87.413,0h6.244V49.95H87.413Zm-24.975,49.95H74.926v6.244H56.194v-6.244ZM68.682,81.17V93.657H56.194V87.413h6.244V81.17ZM49.95,37.462V49.95H31.219v6.244H24.975v6.243H18.731V56.194h6.244V49.95H12.488v6.244H6.244V74.926h6.244V68.682H31.219V62.438h6.244V56.194h6.244v6.243H37.463v6.244h6.244v6.244H37.463V81.17H49.95V99.9h6.244v6.244H49.95v12.487h6.244v6.244H49.95v6.244H62.438v-6.244h6.244v6.244H93.657v-6.244H99.9v6.244h18.731v-6.244H106.145v-6.244h12.488v-6.243h6.244V87.413H106.145V81.17h6.244V62.438h6.244v6.244h6.244v6.244h6.244V62.438h-6.244V56.194h6.244V49.95H118.632v6.244h-6.244V49.95h-6.244v6.244H99.9v6.243h6.244V81.17H99.9v6.244H93.657V99.9H99.9V93.657h6.244v12.488h12.488v6.244H106.145v6.243H99.9v-6.243H93.657v6.243H81.17v6.244H74.926v-6.244H81.17V99.9h6.244V93.657H74.926V87.413H81.17V68.682H74.926V62.438H68.682v6.244H62.438V81.17H56.194V68.682H49.95V62.438h6.244v6.244h6.244V56.194H49.95V49.95h6.244V37.462ZM62.438,18.731H49.95v6.244H62.438v6.244H56.194v6.243h6.244v6.244h6.244V37.462h6.244v6.244H68.682V49.95H62.438v6.244H74.926v6.243H81.17V31.219H74.926V24.975H68.682V18.731ZM24.975,12.488H12.488V31.219H31.219V12.488Zm87.413,0H99.9V31.219h18.731V12.488Zm-49.95,0h6.244V6.244H62.438ZM6.244,31.219V6.243H37.463V37.462H6.244ZM0,0V43.707H43.707V0ZM49.95,0V12.488h6.244V6.243h6.244V0ZM74.926,0V12.488H68.682v6.244H81.17V0ZM93.657,31.219V6.243h31.219V37.462H93.657ZM87.413,0V43.707H131.12V0Z"/>
</svg>
