<svg xmlns="http://www.w3.org/2000/svg" xmlns:xlink="http://www.w3.org/1999/xlink" width="50" height="50" viewBox="0 0 50 50">
  <defs>
    <clipPath id="clip-path">
      <rect id="Rectangle_895" data-name="Rectangle 895" width="30" height="21.346" fill="#fff"/>
    </clipPath>
  </defs>
  <g id="Group_14967" data-name="Group 14967" transform="translate(-848 -277)">
    <circle id="Ellipse_29" data-name="Ellipse 29" cx="25" cy="25" r="25" transform="translate(848 277)" fill="#dc2829"/>
    <g id="Group_14966" data-name="Group 14966" transform="translate(858 291.327)">
      <g id="Group_14965" data-name="Group 14965" clip-path="url(#clip-path)">
        <path id="Path_538" data-name="Path 538" d="M11.868,15.568a4.17,4.17,0,0,1-3.3,1.516A4.243,4.243,0,0,1,4.5,12.8V8.5H8.567V4.212H4.5V0H0V12.779A8.567,8.567,0,0,0,14,19.4a9.126,9.126,0,0,1-2.132-3.836" fill="#fff"/>
        <path id="Path_539" data-name="Path 539" d="M197.691,4.212a8.585,8.585,0,0,0-4.068,1.022V0h-4.5V12.779a8.567,8.567,0,1,0,8.567-8.567m0,12.873a4.3,4.3,0,1,1,4.3-4.3,4.3,4.3,0,0,1-4.3,4.3" transform="translate(-176.259)" fill="#fff"/>
      </g>
    </g>
  </g>
</svg>
